<?xml version="1.0" encoding="utf-8"?>
<!-- Generator: Adobe Illustrator 24.3.0, SVG Export Plug-In . SVG Version: 6.00 Build 0)  -->
<svg version="1.1" id="Layer_1" xmlns="http://www.w3.org/2000/svg" xmlns:xlink="http://www.w3.org/1999/xlink" x="0px" y="0px"
	 viewBox="0 0 588.5 447.4" style="enable-background:new 0 0 588.5 447.4;" xml:space="preserve">
<style type="text/css">
	.st0{clip-path:url(#SVGID_2_);}
	.st1{clip-path:url(#SVGID_4_);}
	.st2{fill:#F4F4F4;}
	.st3{fill:#FFFFFF;}
</style>
<g>
	<defs>
		<rect id="SVGID_1_" x="31.2" y="0" width="526" height="425.5"/>
	</defs>
	<clipPath id="SVGID_2_">
		<use xlink:href="#SVGID_1_"  style="overflow:visible;"/>
	</clipPath>
	<g class="st0">
		<g>
			<defs>
				<rect id="SVGID_3_" x="26" y="-4.1" width="536.5" height="430.1"/>
			</defs>
			<clipPath id="SVGID_4_">
				<use xlink:href="#SVGID_3_"  style="overflow:visible;"/>
			</clipPath>
			<g class="st1">
				<path class="st2" d="M108.4,391.9c0,0,18,0.5,43.2,1.2H193l3.5-5.5l3.4,5.5h7l3.5-5.5l3.4,5.5h7.7l3.5-5.5l3.4,5.5h229.8
					l21.9-0.5l-19.2-43c-16.7,19.2-47.1,18.3-166.9,18.3h-0.1c-123.9,0-149-0.5-167.8-16.3L108.4,391.9z"/>
				<polygon class="st2" points="424.5,212.6 423.8,213.9 507.8,390.3 507.8,390.3 518.1,412 519.2,411.5 509.1,390.3 				"/>
				<path class="st2" d="M319.8,326.2L319.8,326.2c-2.9-1.7-5.6-3.8-8.1-6.1c0,1.4,0,2.7,0,4.1c2.1,1.7,4.3,3.3,6.7,4.7
					C318.8,328,319.3,327.2,319.8,326.2z"/>
				<path class="st2" d="M377,216.5c-9,23-73.7,148.2-73.7,148.2l2.9-0.1h0.2c21.8-41.7,71.2-139.8,71.8-140.9
					c0.1-0.2,12.2-23.8,8.3-51.1h-5.9C381.8,176.9,384.9,196.2,377,216.5z"/>
				<path class="st2" d="M316.4,332.7l0.1-0.2l0.3-0.6l0.5-0.9l0.2-0.3c-2-1.1-3.9-2.4-5.7-3.8c0,1.3,0,2.5,0,3.8
					c1.4,1,2.8,1.9,4.3,2.7C316.2,333.2,316.3,333,316.4,332.7z"/>
				<path class="st2" d="M322,321.7l0.1-0.2c-3.2-1.9-6.2-4.2-8.7-6.9l-1.7-1.9c0,1.5,0,3,0,4.4c2.7,2.8,5.7,5.1,9.1,7.1L322,321.7z
					"/>
				<path class="st2" d="M325.6,314.8c0.4-0.8,0.8-1.6,1.3-2.5c-2.2-1.3-4.2-2.9-5.9-4.8c-3.4-3.7-6.5-7.2-9.3-10.7
					c0,1.6,0,3.2,0,4.8c2.2,2.6,4.6,5.3,7.1,8c2,2.1,4.2,3.9,6.7,5.4L325.6,314.8z"/>
				<path class="st2" d="M330.3,305.4l1.1-2.2l0-0.1c-1.1-0.8-2.1-1.6-3-2.6c-6.3-6.6-11.9-13.7-16.9-21.3c0,1.8,0,3.7,0,5.5
					c4.5,6.3,9.4,12.3,14.7,17.9c1.2,1.2,2.5,2.3,3.9,3.2C330.2,305.7,330.3,305.6,330.3,305.4z"/>
				<path class="st2" d="M329.2,307.7c-1.6-1-3.1-2.3-4.5-3.7c-4.7-5-9-10.2-13.1-15.6c0,1.7,0,3.4,0,5c3.2,4.1,6.8,8.3,10.9,12.7
					c1.6,1.7,3.4,3.1,5.3,4.3L329.2,307.7z"/>
				<path class="st2" d="M323.2,319.5l1.2-2.4l0-0.1c-2.7-1.6-5.2-3.6-7.3-5.9c-2-2.1-3.8-4.1-5.5-6.2c0,1.5,0,3.1,0,4.6
					c1.1,1.2,2.2,2.4,3.3,3.6c2.4,2.5,5.1,4.7,8.1,6.5L323.2,319.5z"/>
				<path class="st2" d="M378.8,224c-0.6,1.2-49.6,98.6-71.6,140.6l0,0h2h1.6h2.1h1.4l2.6-0.1h0.8c5.7-0.1,11.7-0.3,18-0.4l74-145.9
					l-5-8.6l9.7-0.8l1.6-3.2l-4.9-8.5l9.6-0.7l2-4l-4.8-8.3l9.4-0.7l5.5-10.8h-43.3C392.9,197,378.9,223.8,378.8,224z"/>
				<polygon class="st2" points="532.8,390.3 437,189 436.3,190.3 531.6,390.3 546.7,422.1 547.8,421.6 532.8,390.3 				"/>
				<polygon class="st2" points="428.6,204.8 428,206 515.7,390.3 515.7,390.3 527.7,415.3 528.7,414.8 517,390.3 				"/>
				<path class="st2" d="M341.9,363.8l95.2-191.2h-3.1L337,363.9L341.9,363.8z"/>
				<polygon class="st2" points="520.9,390.3 430.7,200.8 430,202.1 519.7,390.3 532.4,417 533.5,416.5 521,390.3 				"/>
				<polygon class="st2" points="426.5,208.7 425.9,210 511.8,390.3 522.9,413.6 523.9,413.2 513,390.3 				"/>
				<polygon class="st2" points="432.8,196.9 432.1,198.1 523.6,390.3 523.7,390.3 537.2,418.7 538.2,418.2 524.9,390.3 				"/>
				<polygon class="st2" points="528.9,390.3 434.9,193 434.2,194.2 527.6,390.3 527.6,390.3 542,420.4 543,419.9 528.9,390.3 				
					"/>
				<polygon class="st2" points="556.2,425.5 557.3,425 441.1,181.1 440.5,182.4 				"/>
				<polygon class="st2" points="551.5,423.8 552.5,423.3 439,185.1 438.4,186.3 				"/>
				<path class="st2" d="M333.8,298.5v-0.1c-0.6-0.4-1.1-0.9-1.6-1.5c-8.1-8.4-15-17.8-20.7-27.9c0,2,0,4.1,0,6.2
					c5.3,8.6,11.5,16.6,18.5,23.9c0.7,0.8,1.6,1.5,2.5,2.1L333.8,298.5z"/>
				<path class="st2" d="M313.7,338l0.4-0.8l0.1-0.2l0.2-0.5c0.1-0.2,0.3-0.5,0.5-0.9c0-0.1,0.1-0.2,0.1-0.2c-1.1-0.6-2.2-1.3-3.3-2
					c0,1.2,0,2.4,0,3.6C312.4,337.3,313,337.7,313.7,338z"/>
				<path class="st2" d="M281.9,364.6h1.8c0,0-63.5-125.1-72.5-148.1c-8-20.3-5.1-39.6-3.8-44h-5.6c-3.9,27.3,8.2,50.9,8.3,51.1
					C210.8,224.8,260.1,322.9,281.9,364.6z"/>
				<path class="st2" d="M210,195.5c0,0.5,0.1,1,0.1,1.5c0,0.2,0,0.4,0.1,0.7c0,0.4,0.1,0.9,0.1,1.3c0,0.3,0.1,0.5,0.1,0.8l0.2,1.3
					c0,0.3,0.1,0.6,0.1,0.8s0.1,0.8,0.2,1.2s0.1,0.6,0.2,0.9s0.2,0.8,0.3,1.2l0.2,0.9c0.1,0.4,0.2,0.8,0.3,1.3s0.1,0.6,0.2,0.9
					s0.2,0.9,0.4,1.3c0.1,0.3,0.2,0.6,0.3,0.9c0.1,0.5,0.3,1,0.5,1.5c0.1,0.2,0.2,0.5,0.2,0.8c0.3,0.7,0.5,1.5,0.8,2.2
					c0.2,0.4,0.4,0.9,0.6,1.4c0,0.1,0.1,0.3,0.2,0.4l0.5,1.1l0.2,0.4c0.2,0.5,0.4,1,0.7,1.6c0,0,0,0.1,0,0.1
					c0.3,0.6,0.6,1.3,0.9,1.9c0,0.1,0.1,0.1,0.1,0.2c0.3,0.6,0.6,1.2,0.9,1.9c0,0.1,0.1,0.2,0.1,0.3l1,2.1l0,0
					c0.7,1.6,1.5,3.2,2.3,4.9l0,0c19.6-25,52.3,3,31.4,19.5c14.4-23.4-27.3-30.8-21.1,1.9l0,0c2.6,5.3,5.4,10.9,8.1,16.5v0.1
					c2.8,5.6,5.6,11.3,8.4,16.8c26.3-28.9,27.3-49.2,27.3-73.4c0-48-45.3-22.6-16.7-3c-27.4-10-8.3-44.8,17.5-32
					c-0.1-16.1-0.2-27.5-0.4-30.7c-1.1-18.1-6.3-35.8-15.1-51.7c-2.2-3.7-4.6-7.3-7.2-10.8l-11.6,24.3c38,25.3,8.9,59.1-1.9,40.1
					c13.2,14.4,27.5-24.3-5.3-24.9l-21.5,45l-1.3,2.9c-0.4,1.3-0.8,2.6-1.1,4c-0.3,2-0.8,4.2-1.1,6.8c0,0.5-0.1,1-0.1,1.5
					c0,0,0,0.1,0,0.1c0,0.5-0.1,1-0.1,1.5c0,0.1,0,0.1,0,0.2c0,0.5,0,1-0.1,1.5c0,0.1,0,0.1,0,0.2c0,0.5,0,1,0,1.6
					c0,0.1,0,0.1,0,0.2c0,1.8,0,3.7,0.2,5.6L210,195.5z"/>
				<polygon class="st2" points="276.7,339 275.6,339.8 276.8,342.7 				"/>
				<path class="st2" d="M271.8,332l0.3,0.6c0,0.1,0.1,0.1,0.1,0.2l0.4,0.7c1.4-0.8,2.7-1.6,4-2.5c0-1.2,0-2.5,0-3.8
					c-1.7,1.3-3.5,2.5-5.4,3.6c0.1,0.1,0.1,0.2,0.2,0.3L271.8,332z"/>
				<path class="st2" d="M274.1,336.5l0.3,0.5l0.1,0.2l0.4,0.8c0.5-0.3,1.1-0.6,1.6-1c0-1.2,0-2.4,0-3.6c-1,0.6-2,1.2-3,1.8l0.1,0.2
					L274.1,336.5z"/>
				<polygon class="st2" points="37,423.8 150,186.6 149.4,185.3 36,423.3 				"/>
				<path class="st2" d="M270.2,328.9c2.2-1.3,4.4-2.8,6.4-4.5c0-1.3,0-2.7,0-4c-2.4,2.2-5,4.1-7.8,5.7v0.1
					C269.3,327.2,269.8,328,270.2,328.9z"/>
				<polygon class="st2" points="32.3,425.5 147.9,182.6 147.3,181.4 31.2,425 				"/>
				<path class="st2" d="M281.1,364.6c-21.9-42-70.8-139.5-71.6-140.6c-0.1-0.2-13.9-27.2-11.7-51.5h-42.7l97.4,191.4
					C262.8,364.2,272.6,364.4,281.1,364.6z"/>
				<path class="st2" d="M251.2,363.9l-97.2-191.1l0.5-0.3h-5l96.9,191.2L251.2,363.9z"/>
				<path class="st2" d="M289.3,364.7h-0.5l5.4,0.1l5.4-0.1l6-11.2c0-44.1,0-191.3,0-192.3c-0.1-16.6-0.4-59.4,18.5-98.9L294.2,0
					l-20.6,43.1c5.6,14.1,15.7,54.5,15.7,124.7L289.3,364.7z"/>
				<path class="st2" d="M282.8,161.3c0,0.9,0,148.2,0,192.3l5.5,10.3v-196c0-68.7-12.3-103.5-18-118.2l-6,12.7
					C283.2,101.9,282.9,144.7,282.8,161.3z"/>
				<polygon class="st2" points="312.6,339.9 311.7,339.6 311.4,342.5 				"/>
				<path class="st2" d="M312,147c-0.2,3.2-0.4,14.6-0.4,30.8c26-13.3,45.4,21.8,17.9,31.8c28.6-19.5-16.7-45-16.7,3
					c0,24.2,1.1,44.5,27.4,73.4c2.8-5.5,5.6-11.2,8.4-16.8c0,0,0-0.1,0-0.1c2.8-5.6,5.5-11.2,8.1-16.5l0,0
					c6.2-32.7-35.5-25.3-21.1-1.9c-20.9-16.6,11.8-44.6,31.4-19.5l0,0c0.8-1.7,1.6-3.4,2.3-4.9l0,0l1-2.1c0-0.1,0.1-0.2,0.1-0.3
					l0.8-1.9c0-0.1,0-0.1,0.1-0.2c0.3-0.7,0.6-1.3,0.9-1.9c0,0,0-0.1,0-0.1l0.7-1.6l0.2-0.4c0.2-0.4,0.3-0.8,0.5-1.1
					c0.1-0.1,0.1-0.3,0.2-0.4c0.2-0.5,0.4-0.9,0.5-1.4c0.3-0.7,0.6-1.5,0.8-2.2c0.1-0.2,0.2-0.5,0.2-0.8c0.2-0.5,0.3-1,0.5-1.5
					c0.1-0.3,0.2-0.6,0.3-0.9c0.1-0.4,0.3-0.9,0.4-1.3l0.2-0.9c0.1-0.4,0.2-0.8,0.3-1.3l0.2-0.9c0.1-0.4,0.2-0.8,0.3-1.2
					s0.1-0.6,0.2-0.9s0.1-0.8,0.2-1.2s0.1-0.6,0.1-0.8s0.1-0.8,0.2-1.3c0-0.2,0.1-0.5,0.1-0.8l0.1-1.3c0-0.2,0-0.4,0.1-0.7
					c0-0.5,0.1-1,0.1-1.5c0-0.1,0-0.3,0-0.4c0.1-2,0.2-3.9,0.1-5.6v-0.2c0-0.5,0-1.1,0-1.6c0-0.1,0-0.1,0-0.2c0-0.5,0-1-0.1-1.5
					c0,0,0-0.1,0-0.2c0-0.5-0.1-1-0.1-1.5c0,0,0-0.1,0-0.1c0-0.5-0.1-1-0.1-1.5c-0.3-2.5-0.8-4.8-1.1-6.8c-0.3-1.4-0.6-2.7-1.1-4
					l-1.3-2.9l-21.5-45c-32.9,0.7-18.6,39.3-5.3,24.9c-10.8,19-39.9-14.8-1.9-40.1l-11.6-24.3c-5.6,7.4-10.2,15.5-13.9,24
					C315.8,120.9,312.8,133.9,312,147z"/>
				<path class="st2" d="M267.8,324.3c3.2-1.9,6.1-4.1,8.8-6.8c0-1.5,0-2.9,0-4.4l-1.4,1.5c-2.6,2.7-5.5,5.1-8.7,6.9l0.1,0.2
					C267,322.6,267.4,323.4,267.8,324.3z"/>
				<path class="st2" d="M258.3,305.4l0.2,0.4c1.4-0.9,2.7-2,3.9-3.2c5.2-5.5,10-11.3,14.4-17.4c0-1.8,0-3.6,0-5.5
					c-4.9,7.4-10.5,14.4-16.6,20.8c-0.9,1-1.9,1.8-3,2.6l0,0.1C257.5,304,257.9,304.7,258.3,305.4z"/>
				<path class="st2" d="M265.4,319.5l0.1,0.2c3-1.8,5.8-4,8.1-6.5c1-1.1,2-2.2,3-3.3c0-1.5,0-3.1,0-4.6c-1.7,1.9-3.4,3.8-5.2,5.8
					c-2.1,2.3-4.6,4.3-7.3,5.9v0.1C264.6,317.9,265,318.7,265.4,319.5z"/>
				<path class="st2" d="M263.1,315c2.5-1.5,4.7-3.3,6.7-5.4c2.4-2.6,4.6-5.1,6.8-7.6c0-1.6,0-3.2,0-4.8c-2.7,3.4-5.7,6.8-9,10.3
					c-1.7,1.8-3.7,3.4-5.9,4.8l1.2,2.5C263.1,314.9,263.1,314.9,263.1,315z"/>
				<path class="st2" d="M266.1,306.1c3.9-4.2,7.4-8.3,10.6-12.3c0-1.7,0-3.4,0-5c-4,5.3-8.2,10.4-12.8,15.3
					c-1.3,1.4-2.8,2.6-4.5,3.7c0.5,0.9,0.9,1.8,1.4,2.7C262.7,309.2,264.5,307.8,266.1,306.1z"/>
				<path class="st2" d="M276.7,269.6c-5.6,9.9-12.5,19.1-20.4,27.4c-0.5,0.5-1.1,1-1.6,1.5l0,0.1l1.3,2.6c0.9-0.6,1.7-1.3,2.5-2.1
					c6.8-7.2,12.9-15,18.1-23.4C276.7,273.7,276.7,271.6,276.7,269.6z"/>
				<path class="st2" d="M225.1,349.7c-2.4,4.7-5.2,9.1-8.6,13.2h0.1l2.8,0.1l0,0c3-3.8,5.5-7.9,7.7-12.3c1.7-3.3,3.1-6.8,4.3-10.3
					l-1.5-2.8C228.6,341.8,227,345.8,225.1,349.7z"/>
				<path class="st2" d="M242.8,362.1l-0.9,1.6h0.4h1.3L242.8,362.1z"/>
				<path class="st2" d="M373.6,308.8c-0.3,11.9,2,22.9,6.7,32.3c4.3,8.7,11.1,16,19.5,20.8h0.9l1.8-0.1l2-0.1l0,0
					c-9.7-4.4-17.6-12-22.2-21.6c-5.2-10.3-7.3-22.6-6.2-36L373.6,308.8z"/>
				<path class="st2" d="M344.5,363.7h1.7l-0.9-1.6L344.5,363.7z"/>
				<path class="st2" d="M183.7,361.6l2,0.1l2.1,0.1h0.6c8.5-4.8,15.3-12,19.5-20.8c4.7-9.4,7-20.3,6.7-32.3l-2.5-4.8
					c1,13.4-1,25.7-6.2,36C201.2,349.6,193.4,357.2,183.7,361.6z"/>
				<path class="st2" d="M359.6,335.1c1.3,4.7,3.1,9.3,5.3,13.7c2.5,5,5.7,9.7,9.3,14l2.9-0.1h0.1c-4.1-4.5-7.5-9.5-10.3-15
					c-2.5-5-4.4-10.2-5.7-15.6L359.6,335.1z"/>
				<polygon class="st2" points="172.3,228.6 88.4,404.7 89.4,405.2 172.9,229.9 				"/>
				<path class="st2" d="M362.6,329.4c1.3,6,3.4,11.9,6.1,17.4c2.9,5.8,6.7,11.1,11.2,15.8h0.8l2.3-0.1c-5-4.8-9.1-10.5-12.2-16.7
					c-3.1-6.2-5.3-12.8-6.5-19.6L362.6,329.4z"/>
				<path class="st2" d="M365.9,323.4c1.1,7.5,3.4,14.8,6.7,21.6c3.3,6.6,7.8,12.5,13.2,17.5h0l3.3-0.1l0,0
					c-6.1-5-11.1-11.3-14.6-18.4c-3.7-7.5-6.1-15.7-6.9-24L365.9,323.4z"/>
				<path class="st2" d="M431.9,288.5l-22.2-46.6c-46.6,71.3-22.3,128.2,24.9,114.5c1.1-0.4,2.2-0.8,3.2-1.3l0.6-0.3
					c0.8-0.3,1.6-0.7,2.4-1.1l0.5-0.2c0.9-0.4,1.8-0.9,2.6-1.3l0.2-0.1c0.8-0.4,1.5-0.8,2.1-1.2c0.2-0.1,0.4-0.2,0.5-0.3
					c0.6-0.4,1.2-0.7,1.8-1.1l0.3-0.2c0.6-0.4,1.3-0.8,1.8-1.2l0.4-0.3c0.5-0.3,0.9-0.6,1.3-0.9l0.4-0.3l1.3-1.1
					c0.4-0.3,0.7-0.6,1-0.9l0.3-0.3l0.6-0.6l0.3-0.2l0.6-0.5l0.1-0.1l0.6-0.6l0,0l-18.4-38.6c-27.4,1.2-32.8,34.5-8.4,34.1l1.1-0.1
					C406.2,348,394.3,302.8,431.9,288.5z"/>
				<path class="st2" d="M369.5,316.6c0.6,9.2,2.9,18.2,7,26.4c3.7,7.5,9.2,14.1,15.9,19.2l3.8-0.2c-7.6-5-13.7-11.9-17.6-20
					c-4.5-9.2-6.8-19.2-6.9-29.4L369.5,316.6z"/>
				<polygon class="st2" points="174.4,232.6 93.2,403 94.2,403.5 175,233.8 				"/>
				<polygon class="st2" points="157.7,201.1 55,416.5 56.1,417 158.4,202.3 				"/>
				<polygon class="st2" points="170.2,224.7 83.6,406.4 84.7,406.9 170.9,225.9 				"/>
				<polygon class="st2" points="155.6,197.1 50.3,418.2 51.3,418.7 156.3,198.4 				"/>
				<polygon class="st2" points="153.5,193.2 45.5,419.9 46.5,420.4 154.2,194.4 				"/>
				<polygon class="st2" points="159.8,205 59.8,414.8 60.9,415.3 160.4,206.2 				"/>
				<polygon class="st2" points="161.9,208.9 64.6,413.2 65.6,413.6 162.5,210.2 				"/>
				<polygon class="st2" points="168.1,220.7 78.9,408.1 79.9,408.6 168.8,222 				"/>
				<polygon class="st2" points="166,216.8 74.1,409.8 75.1,410.3 166.7,218.1 				"/>
				<polygon class="st2" points="163.9,212.9 69.4,411.5 70.4,412 164.6,214.1 				"/>
				<path class="st2" d="M213.6,343.9c-3.5,7.1-8.5,13.3-14.6,18.4l3.4,0.1c5.5-5,10-10.9,13.2-17.5c3.4-6.8,5.6-14.1,6.7-21.6
					l-1.8-3.5C219.6,328.2,217.3,336.4,213.6,343.9z"/>
				<path class="st2" d="M184.2,251.1c-1.8-3-3.6-6.1-5.6-9.2l-22.2,46.6c37.7,14.3,25.7,59.5,0.1,49.1l1.1,0.1
					c24.4,0.4,19-33-8.4-34.1l-18.4,38.5l0,0c0.2,0.2,0.4,0.4,0.6,0.6l0,0l0.7,0.7c0.1,0.1,0.2,0.2,0.2,0.2l0.6,0.6l0.3,0.3
					c0.3,0.3,0.7,0.6,1,0.9l1.4,1.1l0.4,0.3l1.3,1l0.3,0.2c0.6,0.4,1.2,0.8,1.9,1.3l0.2,0.1c0.6,0.4,1.3,0.8,2,1.2l0.4,0.2
					c1.6,0.9,3.3,1.8,5.1,2.7l0.4,0.2c0.9,0.4,1.8,0.8,2.8,1.2l0.3,0.1c1.1,0.5,2.2,0.9,3.4,1.3c42.1,12,65.8-32.3,36.9-92.9
					L184.2,251.1z"/>
				<path class="st2" d="M209.7,342c-4,8.1-10.1,15-17.6,20l0,0l2.1,0.1l1.7,0.1c6.7-5.1,12.2-11.6,15.9-19.2
					c4.1-8.3,6.4-17.2,7-26.4l-2.1-4C216.6,322.7,214.2,332.8,209.7,342z"/>
				<polygon class="st2" points="116.5,394.6 116.5,394.4 105.8,394.4 103.7,398.8 484.6,398.8 482.6,394.6 				"/>
				<polygon class="st2" points="505.1,390.3 422.4,216.6 421.7,217.8 503.9,390.3 513.4,410.3 514.4,409.8 505.1,390.3 				"/>
				<path class="st2" d="M217.4,345.8c-3.1,6.2-7.2,11.8-12.1,16.7h0.7l2.3,0.1c4.5-4.7,8.3-10,11.2-15.8c2.8-5.5,4.8-11.4,6.1-17.4
					l-1.7-3.2C222.7,333,220.5,339.6,217.4,345.8z"/>
				<path class="st2" d="M221.3,347.8c-2.7,5.4-6.2,10.5-10.3,15l3,0.1c3.7-4.3,6.8-9,9.3-14c2.2-4.4,4-9,5.3-13.7l-1.6-3
					C225.7,337.5,223.8,342.8,221.3,347.8z"/>
				<polygon class="st2" points="497.2,390.3 418.2,224.5 417.5,225.7 495.9,390.3 503.8,406.9 504.9,406.4 497.2,390.3 				"/>
				<polygon class="st2" points="420.3,220.5 419.6,221.8 499.9,390.3 508.6,408.6 509.6,408.1 501.1,390.3 				"/>
				<polygon class="st2" points="414,232.3 413.4,233.6 488,390.3 494.3,403.5 495.3,403 489.3,390.3 				"/>
				<polygon class="st2" points="416.1,228.4 415.5,229.7 492,390.3 492,390.3 499.1,405.2 500.1,404.7 493.2,390.3 				"/>
				<path class="st2" d="M228.9,351.6c-2,4-4.4,7.8-7.1,11.4l0,0l2.6,0.1h0.1c2.4-3.3,4.5-6.8,6.3-10.5c1.2-2.3,2.2-4.7,3.1-7.1
					l-1.4-2.7C231.6,345.9,230.3,348.8,228.9,351.6z"/>
				<path class="st2" d="M351.5,350.5c0.6,1.4,1.2,2.8,1.9,4.1c1.5,3,3.2,5.9,5.1,8.7l0,0l2.7-0.1c-2.1-3.1-4-6.3-5.7-9.7
					c-0.9-1.8-1.8-3.7-2.6-5.7L351.5,350.5z"/>
				<path class="st2" d="M346.5,359.9c0.7,1.2,1.3,2.5,2,3.7h1.7h0.9c-1.2-2-2.3-3.9-3.4-6L346.5,359.9z"/>
				<polygon class="st2" points="151.4,189.2 40.8,421.6 41.8,422.1 152.1,190.5 				"/>
				<path class="st2" d="M354.1,345.5c0.9,2.4,2,4.8,3.1,7.1c1.8,3.7,4,7.2,6.3,10.5l2.8-0.1c-2.7-3.6-5.1-7.4-7.1-11.4
					c-1.4-2.8-2.7-5.8-3.7-8.8L354.1,345.5z"/>
				<path class="st2" d="M349,355.3c0.2,0.4,0.4,0.8,0.6,1.2c1.2,2.4,2.5,4.7,3.9,6.9h1.8h0.8c-1.6-2.5-3.2-5.2-4.5-7.9
					c-0.5-0.9-0.9-1.8-1.3-2.8L349,355.3z"/>
				<path class="st2" d="M232.8,353.6c-1.7,3.3-3.6,6.6-5.7,9.7h0.5l2.2,0.1c1.9-2.8,3.6-5.7,5.1-8.7c0.7-1.3,1.3-2.7,1.9-4.1
					l-1.4-2.6C234.5,349.8,233.7,351.7,232.8,353.6z"/>
				<path class="st2" d="M356.8,340.4c1.2,3.5,2.6,7,4.3,10.3c2.2,4.3,4.8,8.4,7.7,12.3l2.8-0.1l0,0c-3.3-4.1-6.2-8.5-8.6-13.2
					c-1.9-3.9-3.5-7.9-4.8-12L356.8,340.4z"/>
				<path class="st2" d="M237.1,363.5l2.6,0.1c0.7-1.2,1.4-2.4,2-3.7l-1.3-2.4C239.4,359.6,238.3,361.6,237.1,363.5z"/>
				<path class="st2" d="M236.6,355.5c-1.4,2.7-2.9,5.3-4.5,7.9h0.8h1.8c1.4-2.2,2.7-4.5,3.9-6.9c0.2-0.4,0.4-0.8,0.6-1.2l-1.3-2.5
					C237.5,353.7,237.1,354.6,236.6,355.5z"/>
			</g>
		</g>
	</g>
</g>
<rect y="399.4" class="st3" width="588.5" height="48"/>
</svg>
