<?xml version="1.0" encoding="utf-8"?>
<!-- Generator: Adobe Illustrator 24.2.3, SVG Export Plug-In . SVG Version: 6.00 Build 0)  -->
<svg version="1.1" id="Layer_1" xmlns="http://www.w3.org/2000/svg" xmlns:xlink="http://www.w3.org/1999/xlink" x="0px" y="0px"
	 viewBox="0 0 526 425.5" style="enable-background:new 0 0 526 425.5;" xml:space="preserve">
<style type="text/css">
	.st0{display:none;fill:#3F4243;}
	.st1{fill:#D8D8D8;}
</style>
<polygon class="st0" points="118.2,172.5 181.1,172.5 263,0 344.9,172.1 405.9,172.5 526,425 0,425 "/>
<g>
	<path class="st1" d="M77.1,391.9c0,0,18,0.5,43.2,1.2h41.4l3.5-5.5l3.4,5.5h7l3.5-5.5l3.4,5.5h7.7l3.5-5.5l3.4,5.5h229.8l21.9-0.5
		l-19.2-43c-16.7,19.2-47.1,18.3-166.9,18.3h-0.1c-123.9,0-149-0.5-167.9-16.3L77.1,391.9z"/>
	<polygon class="st1" points="393.2,212.6 392.6,213.9 476.6,390.3 476.6,390.3 486.9,412 487.9,411.5 477.8,390.3 	"/>
	<path class="st1" d="M288.5,326.2L288.5,326.2c-2.9-1.7-5.6-3.8-8.1-6.1c0,1.4,0,2.7,0,4.1c2.1,1.7,4.3,3.3,6.7,4.7
		C287.6,328,288,327.1,288.5,326.2z"/>
	<path class="st1" d="M345.8,216.5c-9,23-73.7,148.2-73.7,148.2l2.9-0.1h0.2c21.8-41.7,71.2-139.8,71.8-140.9
		c0.1-0.2,12.2-23.8,8.3-51.1h-5.9C350.6,176.9,353.7,196.2,345.8,216.5z"/>
	<path class="st1" d="M285.2,332.7l0.1-0.2l0.3-0.6l0.5-0.9l0.2-0.3c-2-1.1-3.9-2.4-5.7-3.8c0,1.3,0,2.5,0,3.8
		c1.4,1,2.8,1.9,4.3,2.7C284.9,333.2,285,333,285.2,332.7z"/>
	<path class="st1" d="M290.8,321.7l0.1-0.2c-3.2-1.9-6.2-4.2-8.7-6.9l-1.7-1.9c0,1.5,0,3,0,4.4c2.7,2.8,5.7,5.1,9.1,7.1L290.8,321.7
		z"/>
	<path class="st1" d="M294.3,314.8c0.4-0.8,0.8-1.6,1.3-2.5c-2.2-1.3-4.2-2.9-5.9-4.8c-3.4-3.7-6.5-7.2-9.3-10.7c0,1.6,0,3.2,0,4.8
		c2.2,2.6,4.6,5.3,7.1,8c2,2.1,4.2,3.9,6.7,5.4L294.3,314.8z"/>
	<path class="st1" d="M299.1,305.4l1.1-2.2v-0.1c-1.1-0.8-2.1-1.6-3-2.6c-6.3-6.6-11.9-13.7-16.9-21.3c0,1.8,0,3.7,0,5.5
		c4.5,6.3,9.4,12.3,14.7,17.9c1.2,1.2,2.5,2.3,3.9,3.2C299,305.7,299,305.6,299.1,305.4z"/>
	<path class="st1" d="M297.9,307.7c-1.6-1-3.1-2.3-4.5-3.7c-4.7-5-9-10.2-13.1-15.6c0,1.7,0,3.4,0,5c3.2,4.1,6.8,8.3,10.9,12.7
		c1.6,1.7,3.4,3.1,5.3,4.3L297.9,307.7z"/>
	<path class="st1" d="M292,319.5l1.2-2.4V317c-2.7-1.6-5.2-3.6-7.3-5.9c-2-2.1-3.8-4.1-5.5-6.2c0,1.5,0,3.1,0,4.6
		c1.1,1.2,2.2,2.4,3.3,3.6c2.4,2.5,5.1,4.7,8.1,6.5L292,319.5z"/>
	<path class="st1" d="M347.5,224c-0.6,1.2-49.6,98.6-71.6,140.6l0,0h2h1.6h2.1h1.4l2.6-0.1h0.8c5.7-0.1,11.7-0.3,18-0.4l74-145.9
		l-5-8.6l9.7-0.8l1.6-3.2l-4.9-8.5l9.6-0.7l2-4l-4.8-8.3l9.4-0.7l5.5-10.8h-43.3C361.7,197,347.7,223.8,347.5,224z"/>
	<polygon class="st1" points="501.6,390.3 405.7,189 405.1,190.3 500.3,390.3 515.5,422.1 516.5,421.6 	"/>
	<polygon class="st1" points="397.4,204.8 396.7,206 484.5,390.3 484.5,390.3 496.4,415.3 497.5,414.8 485.8,390.3 	"/>
	<path class="st1" d="M310.7,363.8l95.2-191.2h-3.1L305.7,364L310.7,363.8z"/>
	<polygon class="st1" points="489.7,390.3 399.5,200.8 398.8,202.1 488.5,390.3 501.2,417 502.2,416.5 	"/>
	<polygon class="st1" points="395.3,208.7 394.6,210 480.5,390.3 491.7,413.6 492.7,413.1 481.8,390.3 	"/>
	<polygon class="st1" points="401.6,196.9 400.9,198.1 492.4,390.3 492.4,390.3 506,418.7 507,418.2 493.7,390.3 	"/>
	<polygon class="st1" points="497.6,390.3 403.6,192.9 403,194.2 496.4,390.3 496.4,390.3 510.7,420.4 511.8,419.9 	"/>
	<polygon class="st1" points="525,425.5 526,425 409.9,181.1 409.2,182.4 	"/>
	<polygon class="st1" points="520.2,423.8 521.3,423.3 407.8,185.1 407.1,186.3 	"/>
	<path class="st1" d="M302.6,298.5v-0.1c-0.6-0.4-1.1-0.9-1.6-1.5c-8.1-8.4-15-17.8-20.7-27.9c0,2,0,4.1,0,6.2
		c5.3,8.6,11.5,16.6,18.5,23.9c0.7,0.8,1.6,1.5,2.5,2.1L302.6,298.5z"/>
	<path class="st1" d="M282.4,338l0.4-0.8l0.1-0.2l0.2-0.5c0.1-0.2,0.3-0.5,0.5-0.9c0-0.1,0.1-0.2,0.1-0.2c-1.1-0.6-2.2-1.3-3.3-2
		c0,1.2,0,2.4,0,3.6C281.2,337.3,281.8,337.7,282.4,338z"/>
	<path class="st1" d="M250.7,364.6h1.8c0,0-63.5-125.1-72.5-148.1c-8-20.3-5.1-39.6-3.8-44h-5.6c-3.9,27.3,8.2,50.9,8.3,51.1
		C179.5,224.8,228.9,322.9,250.7,364.6z"/>
	<path class="st1" d="M178.8,195.5c0,0.5,0.1,1,0.1,1.5c0,0.2,0,0.4,0.1,0.7c0,0.4,0.1,0.9,0.1,1.3c0,0.3,0.1,0.5,0.1,0.8l0.2,1.3
		c0,0.3,0.1,0.6,0.1,0.8c0,0.3,0.1,0.8,0.2,1.2c0.1,0.4,0.1,0.6,0.2,0.9s0.2,0.8,0.3,1.2l0.2,0.9c0.1,0.4,0.2,0.8,0.3,1.3
		c0.1,0.4,0.1,0.6,0.2,0.9c0.1,0.3,0.2,0.9,0.4,1.3c0.1,0.3,0.2,0.6,0.3,0.9c0.1,0.5,0.3,1,0.5,1.5c0.1,0.2,0.2,0.5,0.2,0.8
		c0.3,0.7,0.5,1.5,0.8,2.2c0.2,0.4,0.4,0.9,0.5,1.4c0,0.1,0.1,0.3,0.2,0.4l0.5,1.1l0.2,0.4c0.2,0.5,0.5,1,0.7,1.6v0.1
		c0.3,0.6,0.6,1.3,0.9,1.9c0,0.1,0.1,0.1,0.1,0.2c0.3,0.6,0.6,1.2,0.9,1.9c0,0.1,0.1,0.2,0.1,0.3l1,2.1l0,0c0.7,1.6,1.5,3.2,2.3,4.9
		l0,0c19.6-25,52.3,3,31.4,19.5c14.4-23.4-27.3-30.8-21.1,1.9l0,0c2.6,5.3,5.4,10.9,8.1,16.5v0.1c2.8,5.6,5.6,11.3,8.4,16.8
		c26.3-28.9,27.4-49.2,27.4-73.4c0-48-45.3-22.6-16.7-3c-27.4-10-8.3-44.8,17.5-32c-0.1-16.1-0.2-27.5-0.4-30.7
		c-1.1-18.1-6.3-35.8-15.1-51.7c-2.2-3.7-4.6-7.3-7.2-10.8l-11.6,24.3c38,25.3,8.9,59.1-1.9,40.1c13.2,14.4,27.5-24.3-5.3-24.9
		l-21.5,45l-1.3,2.9c-0.4,1.3-0.8,2.6-1.1,4c-0.3,2-0.8,4.2-1.1,6.8c0,0.5-0.1,1-0.1,1.5v0.1c0,0.5-0.1,1-0.1,1.5c0,0.1,0,0.1,0,0.2
		c0,0.5,0,1-0.1,1.5c0,0.1,0,0.1,0,0.2c0,0.5,0,1,0,1.6c0,0.1,0,0.1,0,0.2c0,1.8,0,3.7,0.2,5.6L178.8,195.5z"/>
	<polygon class="st1" points="245.5,339 244.4,339.8 245.6,342.7 	"/>
	<path class="st1" d="M240.6,332l0.3,0.6c0,0.1,0.1,0.1,0.1,0.2l0.4,0.7c1.4-0.8,2.7-1.6,4-2.5c0-1.2,0-2.5,0-3.8
		c-1.7,1.3-3.5,2.5-5.4,3.6c0.1,0.1,0.1,0.2,0.2,0.3L240.6,332z"/>
	<path class="st1" d="M242.9,336.5l0.3,0.5l0.1,0.2l0.4,0.8c0.5-0.3,1.1-0.6,1.6-1c0-1.2,0-2.4,0-3.6c-1,0.6-2,1.2-3,1.8l0.1,0.2
		L242.9,336.5z"/>
	<polygon class="st1" points="5.8,423.8 118.8,186.6 118.1,185.3 4.8,423.3 	"/>
	<path class="st1" d="M239,328.9c2.2-1.3,4.4-2.8,6.4-4.5c0-1.3,0-2.7,0-4c-2.4,2.2-5,4.1-7.8,5.7v0.1
		C238.1,327.1,238.6,328,239,328.9z"/>
	<polygon class="st1" points="1,425.5 116.7,182.6 116,181.4 0,425 	"/>
	<path class="st1" d="M249.9,364.6C228,322.6,179.1,225,178.3,224c-0.1-0.2-13.9-27.2-11.7-51.5h-42.7l97.4,191.4
		C231.6,364.2,241.4,364.4,249.9,364.6z"/>
	<path class="st1" d="M220,363.9l-97.3-191.1l0.5-0.3h-5l96.9,191.2L220,363.9z"/>
	<path class="st1" d="M258,364.7h-0.5l5.4,0.1l5.4-0.1l6-11.2c0-44.1,0-191.3,0-192.3c-0.1-16.6-0.4-59.4,18.5-98.9L263,0
		l-20.6,43.1C248,57.2,258,97.6,258,167.8V364.7z"/>
	<path class="st1" d="M251.6,161.3c0,0.9,0,148.2,0,192.3l5.5,10.3v-196c0-68.8-12.3-103.5-18-118.2l-6,12.7
		C252,101.9,251.7,144.7,251.6,161.3z"/>
	<polygon class="st1" points="281.4,339.9 280.4,339.6 280.1,342.5 	"/>
	<path class="st1" d="M280.7,147c-0.2,3.2-0.4,14.6-0.4,30.8c26-13.3,45.4,21.8,17.9,31.8c28.6-19.5-16.7-45-16.7,3
		c0,24.2,1.1,44.5,27.4,73.4c2.8-5.5,5.6-11.2,8.4-16.8v-0.1c2.8-5.6,5.5-11.2,8.1-16.5l0,0c6.2-32.7-35.5-25.3-21.1-1.9
		c-20.9-16.6,11.8-44.6,31.4-19.5l0,0c0.8-1.7,1.6-3.4,2.3-4.9l0,0l1-2.1c0-0.1,0.1-0.2,0.1-0.3l0.8-1.9c0-0.1,0-0.1,0.1-0.2
		c0.3-0.7,0.6-1.3,0.9-1.9v-0.1l0.7-1.6l0.2-0.4c0.2-0.4,0.3-0.8,0.5-1.1c0.1-0.1,0.1-0.3,0.2-0.4c0.2-0.5,0.4-0.9,0.5-1.4
		c0.3-0.7,0.6-1.5,0.8-2.2c0.1-0.2,0.2-0.5,0.2-0.8c0.2-0.5,0.3-1,0.5-1.5c0.1-0.3,0.2-0.6,0.3-0.9c0.1-0.4,0.3-0.9,0.4-1.3l0.2-0.9
		c0.1-0.4,0.2-0.8,0.3-1.3l0.2-0.9c0.1-0.4,0.2-0.8,0.3-1.2s0.1-0.6,0.2-0.9s0.1-0.8,0.2-1.2s0.1-0.6,0.1-0.8s0.1-0.8,0.2-1.3
		c0-0.2,0.1-0.5,0.1-0.8l0.1-1.3c0-0.2,0-0.4,0.1-0.7c0-0.5,0.1-1,0.1-1.5c0-0.1,0-0.3,0-0.4c0.1-2,0.2-3.9,0.1-5.6v-0.2
		c0-0.5,0-1.1,0-1.6c0-0.1,0-0.1,0-0.2c0-0.5,0-1-0.1-1.5c0,0,0-0.1,0-0.2c0-0.5-0.1-1-0.1-1.5v-0.1c0-0.5-0.1-1-0.1-1.5
		c-0.3-2.5-0.8-4.8-1.1-6.8c-0.3-1.4-0.6-2.7-1.1-4l-1.3-2.9l-21.5-45c-32.9,0.7-18.6,39.3-5.3,24.9c-10.8,19-39.9-14.8-1.9-40.1
		l-11.6-24.3c-5.6,7.4-10.2,15.5-13.9,24C284.5,120.9,281.6,133.9,280.7,147z"/>
	<path class="st1" d="M236.6,324.3c3.2-1.9,6.1-4.1,8.8-6.8c0-1.5,0-2.9,0-4.4l-1.4,1.5c-2.6,2.7-5.5,5.1-8.7,6.9l0.1,0.2
		C235.8,322.6,236.2,323.4,236.6,324.3z"/>
	<path class="st1" d="M227,305.4l0.2,0.4c1.4-0.9,2.7-2,3.9-3.2c5.2-5.5,10-11.3,14.4-17.4c0-1.8,0-3.6,0-5.5
		c-4.9,7.4-10.5,14.4-16.6,20.8c-0.9,1-1.9,1.8-3,2.6v0.1C226.3,304,226.7,304.7,227,305.4z"/>
	<path class="st1" d="M234.2,319.5l0.1,0.2c3-1.8,5.8-4,8.1-6.5c1-1.1,2-2.2,3-3.3c0-1.5,0-3.1,0-4.6c-1.7,1.9-3.4,3.8-5.2,5.8
		c-2.1,2.3-4.6,4.3-7.3,5.9v0.1C233.4,317.9,233.8,318.7,234.2,319.5z"/>
	<path class="st1" d="M231.9,315c2.5-1.5,4.7-3.3,6.7-5.4c2.4-2.6,4.6-5.1,6.8-7.6c0-1.6,0-3.2,0-4.8c-2.7,3.4-5.7,6.8-9,10.3
		c-1.7,1.8-3.7,3.4-5.9,4.8l1.2,2.5C231.8,314.9,231.9,314.9,231.9,315z"/>
	<path class="st1" d="M234.9,306.1c3.9-4.2,7.4-8.3,10.6-12.3c0-1.7,0-3.4,0-5c-4,5.3-8.2,10.4-12.8,15.3c-1.3,1.4-2.8,2.6-4.5,3.7
		c0.5,0.9,0.9,1.8,1.4,2.7C231.5,309.2,233.3,307.8,234.9,306.1z"/>
	<path class="st1" d="M245.5,269.6c-5.6,9.9-12.5,19.1-20.4,27.4c-0.5,0.5-1.1,1-1.6,1.5v0.1l1.3,2.6c0.9-0.6,1.7-1.3,2.5-2.1
		c6.8-7.2,12.9-15,18.1-23.4C245.5,273.7,245.5,271.6,245.5,269.6z"/>
	<path class="st1" d="M193.9,349.7c-2.4,4.7-5.2,9.1-8.6,13.2h0.1l2.8,0.1l0,0c3-3.8,5.5-7.9,7.7-12.3c1.7-3.3,3.1-6.8,4.3-10.3
		l-1.5-2.8C197.4,341.8,195.8,345.8,193.9,349.7z"/>
	<path class="st1" d="M211.6,362.1l-0.9,1.6h0.5h1.3L211.6,362.1z"/>
	<path class="st1" d="M342.4,308.8c-0.3,11.9,2,22.9,6.7,32.3c4.3,8.7,11.1,16,19.5,20.8h0.9l1.8-0.1l2-0.1l0,0
		c-9.7-4.4-17.6-12-22.2-21.6c-5.2-10.3-7.3-22.6-6.2-36L342.4,308.8z"/>
	<path class="st1" d="M313.3,363.7h1.7l-0.9-1.6L313.3,363.7z"/>
	<path class="st1" d="M152.5,361.6l2,0.1l2.1,0.1h0.6c8.5-4.8,15.3-12,19.5-20.8c4.7-9.4,7-20.3,6.7-32.3l-2.5-4.8
		c1,13.4-1,25.7-6.2,36C170,349.6,162.2,357.2,152.5,361.6z"/>
	<path class="st1" d="M328.4,335.1c1.3,4.7,3.1,9.3,5.3,13.7c2.5,5,5.7,9.7,9.3,14l2.9-0.1h0.1c-4.1-4.5-7.5-9.5-10.3-15
		c-2.5-5-4.4-10.2-5.7-15.6L328.4,335.1z"/>
	<polygon class="st1" points="141.1,228.6 57.2,404.7 58.2,405.2 141.7,229.9 	"/>
	<path class="st1" d="M331.4,329.4c1.3,6,3.4,11.9,6.1,17.4c2.9,5.8,6.7,11.1,11.2,15.8h0.8l2.3-0.1c-5-4.8-9.1-10.5-12.2-16.7
		s-5.3-12.8-6.5-19.6L331.4,329.4z"/>
	<path class="st1" d="M334.6,323.4c1.1,7.5,3.4,14.8,6.7,21.6c3.3,6.6,7.8,12.5,13.2,17.5l0,0l3.3-0.1l0,0
		c-6.1-5-11.1-11.3-14.6-18.4c-3.7-7.5-6.1-15.7-6.9-24L334.6,323.4z"/>
	<path class="st1" d="M400.7,288.5l-22.2-46.6c-46.6,71.3-22.3,128.2,24.9,114.5c1.1-0.4,2.2-0.8,3.2-1.3l0.6-0.3
		c0.8-0.3,1.6-0.7,2.4-1.1l0.5-0.2c0.9-0.4,1.8-0.9,2.6-1.3l0.2-0.1c0.8-0.4,1.5-0.8,2.1-1.2c0.2-0.1,0.4-0.2,0.5-0.3
		c0.6-0.4,1.2-0.7,1.8-1.1l0.3-0.2c0.6-0.4,1.3-0.8,1.8-1.2l0.4-0.3c0.5-0.3,0.9-0.6,1.3-0.9l0.4-0.3l1.3-1.1c0.4-0.3,0.7-0.6,1-0.9
		l0.3-0.3l0.6-0.6l0.3-0.2l0.6-0.5l0.1-0.1l0.6-0.6l0,0l-18.4-38.6c-27.4,1.2-32.8,34.5-8.4,34.1l1.1-0.1
		C375,348,363,302.8,400.7,288.5z"/>
	<path class="st1" d="M338.2,316.6c0.6,9.2,2.9,18.2,7,26.4c3.7,7.5,9.2,14.1,15.9,19.2l3.8-0.2c-7.6-5-13.7-11.9-17.6-20
		c-4.5-9.2-6.8-19.2-6.9-29.4L338.2,316.6z"/>
	<polygon class="st1" points="143.1,232.6 61.9,403 63,403.5 143.8,233.8 	"/>
	<polygon class="st1" points="126.5,201.1 23.8,416.5 24.9,417 127.1,202.3 	"/>
	<polygon class="st1" points="139,224.7 52.4,406.4 53.4,406.9 139.6,225.9 	"/>
	<polygon class="st1" points="124.4,197.1 19.1,418.2 20.1,418.7 125,198.4 	"/>
	<polygon class="st1" points="122.3,193.2 14.3,419.9 15.3,420.4 123,194.4 	"/>
	<polygon class="st1" points="128.5,205 28.6,414.8 29.6,415.3 129.2,206.2 	"/>
	<polygon class="st1" points="130.6,208.9 33.3,413.1 34.4,413.6 131.3,210.2 	"/>
	<polygon class="st1" points="136.9,220.7 47.7,408.1 48.7,408.6 137.5,222 	"/>
	<polygon class="st1" points="134.8,216.8 42.9,409.8 43.9,410.3 135.5,218.1 	"/>
	<polygon class="st1" points="132.7,212.9 38.1,411.5 39.1,412 133.4,214.1 	"/>
	<path class="st1" d="M182.3,343.9c-3.5,7.1-8.5,13.3-14.5,18.4l3.4,0.1c5.5-5,10-10.9,13.2-17.5c3.4-6.8,5.6-14.1,6.7-21.6
		l-1.8-3.5C188.4,328.2,186.1,336.4,182.3,343.9z"/>
	<path class="st1" d="M152.9,251.1c-1.8-3-3.6-6.1-5.6-9.2L125,288.5c37.7,14.3,25.7,59.5,0.1,49.1l1.1,0.1c24.4,0.4,19-33-8.4-34.1
		l-18.4,38.5l0,0c0.2,0.2,0.4,0.4,0.6,0.6l0,0l0.7,0.7c0.1,0.1,0.2,0.2,0.2,0.2l0.6,0.6l0.3,0.3c0.3,0.3,0.7,0.6,1,0.9l1.4,1.1
		l0.4,0.3l1.3,1l0.3,0.2c0.6,0.4,1.2,0.8,1.9,1.3l0.2,0.1c0.6,0.4,1.3,0.8,2,1.2l0.4,0.2c1.6,0.9,3.3,1.8,5.1,2.7l0.4,0.2
		c0.9,0.4,1.8,0.8,2.8,1.2l0.3,0.1c1.1,0.5,2.2,0.9,3.4,1.3c42.1,12,65.8-32.3,36.9-92.9L152.9,251.1z"/>
	<path class="st1" d="M178.5,342c-4,8.1-10.1,15-17.6,20l0,0l2.1,0.1l1.7,0.1c6.7-5.1,12.2-11.6,15.9-19.2c4.1-8.3,6.4-17.2,7-26.4
		l-2.1-4C185.4,322.7,183,332.8,178.5,342z"/>
	<polygon class="st1" points="85.2,394.6 85.2,394.4 74.6,394.4 72.5,398.8 453.3,398.8 451.4,394.6 	"/>
	<polygon class="st1" points="473.9,390.3 391.1,216.6 390.5,217.8 472.6,390.3 482.1,410.3 483.2,409.8 	"/>
	<path class="st1" d="M186.2,345.8c-3.1,6.2-7.2,11.8-12.1,16.7h0.7l2.3,0.1c4.5-4.7,8.3-10,11.2-15.8c2.8-5.5,4.8-11.4,6.1-17.4
		l-1.7-3.2C191.4,333,189.3,339.6,186.2,345.8z"/>
	<path class="st1" d="M190,347.8c-2.7,5.4-6.2,10.5-10.3,15l3,0.1c3.7-4.3,6.8-9,9.3-14c2.2-4.4,4-9,5.3-13.7l-1.6-3
		C194.5,337.5,192.5,342.8,190,347.8z"/>
	<polygon class="st1" points="466,390.3 387,224.4 386.3,225.7 464.7,390.3 472.6,406.9 473.6,406.4 	"/>
	<polygon class="st1" points="389.1,220.5 388.4,221.8 468.7,390.3 477.4,408.6 478.4,408.1 469.9,390.3 	"/>
	<polygon class="st1" points="382.8,232.3 382.1,233.6 456.8,390.3 463.1,403.5 464.1,403 458,390.3 	"/>
	<polygon class="st1" points="384.9,228.4 384.2,229.6 460.7,390.3 460.7,390.3 467.8,405.2 468.9,404.7 462,390.3 	"/>
	<path class="st1" d="M197.7,351.6c-2,4-4.4,7.8-7.1,11.4l0,0l2.6,0.1h0.1c2.4-3.3,4.5-6.8,6.3-10.5c1.2-2.3,2.2-4.7,3.1-7.1
		l-1.4-2.7C200.4,345.9,199.1,348.8,197.7,351.6z"/>
	<path class="st1" d="M320.3,350.5c0.6,1.4,1.2,2.8,1.9,4.1c1.5,3,3.2,5.9,5.1,8.7l0,0l2.7-0.1c-2.1-3.1-4-6.3-5.7-9.7
		c-0.9-1.8-1.8-3.7-2.6-5.7L320.3,350.5z"/>
	<path class="st1" d="M315.3,359.9c0.7,1.2,1.3,2.5,2,3.7h1.7h0.9c-1.2-2-2.3-3.9-3.4-6L315.3,359.9z"/>
	<polygon class="st1" points="120.2,189.2 9.5,421.6 10.6,422.1 120.9,190.5 	"/>
	<path class="st1" d="M322.9,345.5c0.9,2.4,2,4.8,3.1,7.1c1.8,3.7,4,7.2,6.3,10.5l2.8-0.1c-2.7-3.6-5.1-7.4-7.1-11.4
		c-1.4-2.8-2.7-5.8-3.7-8.8L322.9,345.5z"/>
	<path class="st1" d="M317.7,355.3c0.2,0.4,0.4,0.8,0.6,1.2c1.2,2.4,2.5,4.7,3.9,6.9h1.8h0.8c-1.6-2.5-3.2-5.2-4.5-7.9
		c-0.5-0.9-0.9-1.8-1.3-2.8L317.7,355.3z"/>
	<path class="st1" d="M201.5,353.6c-1.7,3.3-3.6,6.6-5.7,9.7h0.5l2.2,0.1c1.9-2.8,3.6-5.7,5.1-8.7c0.7-1.3,1.3-2.7,1.9-4.1l-1.4-2.6
		C203.3,349.8,202.5,351.7,201.5,353.6z"/>
	<path class="st1" d="M325.6,340.4c1.2,3.5,2.6,7,4.3,10.3c2.2,4.3,4.8,8.4,7.7,12.3l2.8-0.1l0,0c-3.3-4.1-6.2-8.5-8.6-13.2
		c-1.9-3.9-3.5-7.9-4.8-12L325.6,340.4z"/>
	<path class="st1" d="M205.8,363.5l2.6,0.1c0.7-1.2,1.4-2.4,2-3.7l-1.3-2.4C208.1,359.6,207,361.6,205.8,363.5z"/>
	<path class="st1" d="M205.4,355.5c-1.4,2.7-2.9,5.3-4.5,7.9h0.8h1.8c1.4-2.2,2.7-4.5,3.9-6.9c0.2-0.4,0.4-0.8,0.6-1.2l-1.3-2.5
		C206.2,353.7,205.8,354.6,205.4,355.5z"/>
</g>
<path class="st1" d="M-8.9,425.5"/>
</svg>
